# xmcd
#
# Track frame offsets:
#	150
#	13265
#	26587
#	36775
#	50075
#	63207
#	77735
#	85865
#	95132
#	114495
#	126317
#	136667
#	146375
#	158155
#	171857
#	189397
#	201367
#	215682
#	234512
#	243897
#
# Disc length: 3479
#
# Revision: 1
# Processed by: cddbd v1.5.1PL0 Copyright (c) Steve Scherf et al.
# Submitted via: FreeRIP 2.60 
# Normalized: r0:TDELIM( - )
#
DISCID=160d9514
DTITLE=Various Artist - The Best of Country and Western
DYEAR=1994
DGENRE=Country
TTITLE0=Carry and Ron - Friendly Fire
TTITLE1=Lynn Anderson - Rosegarden
TTITLE2=Willie Nelson - Pride Wins Again
TTITLE3=Alabama - Patches
TTITLE4=Kenny Rogers - Ruby, Don't Take Your Love To Town
TTITLE5=Anne Murray - Both Sides Now
TTITLE6=Roger Miller - Can't Stop Lovin' You
TTITLE7=Conway Twitty - This Road That I Walk
TTITLE8=Jimmy Dean - Let Me Sing My Song
TTITLE9=Dolly Parton - Making Believe
TTITLE10=Dave Dudley - Six Days On The Road
TTITLE11=John Anderson - Mississippi Rainstorm
TTITLE12=Waylon Jennings - Crying
TTITLE13=Freddy Fender - Mean Woman Blues
TTITLE14=The Carter Family - Will The Circle Be Unbroken
TTITLE15=Billy Jo Spears - Look What They've Done To My Song
TTITLE16=Carl Perkins - Red Neck
TTITLE17=Conny Conrad - I See The Sun Going Down
TTITLE18=Silke Besa - Stop Talking
TTITLE19=Kelly Family - One More Freaking Dollar
EXTD=Limited Edition. 25.000 items worldwide.
EXTT0=
EXTT1=
EXTT2=
EXTT3=
EXTT4=
EXTT5=
EXTT6=
EXTT7=
EXTT8=
EXTT9=
EXTT10=
EXTT11=
EXTT12=
EXTT13=
EXTT14=
EXTT15=
EXTT16=
EXTT17=
EXTT18=
EXTT19=
PLAYORDER=
